<?xml version="1.0" standalone="no"?>
<!DOCTYPE svg PUBLIC "-//W3C//DTD SVG 20010904//EN" "http://www.w3.org/TR/2001/REC-SVG-20010904/DTD/svg10.dtd">
<svg version="1.0" xmlns="http://www.w3.org/2000/svg" width="200.000000pt" height="200.000000pt"
    viewBox="0 0 200.000000 200.000000" preserveAspectRatio="xMidYMid meet">
    <metadata>
        Created by potrace 1.16, written by Peter Selinger 2001-2019
    </metadata>
    <g transform="translate(0.000000,200.000000) scale(0.100000,-0.100000)" fill="#5f5f5f" stroke="none">
        <path d="M480 1000 l0 -400 520 0 520 0 0 400 0 400 -520 0 -520 0 0 -400z
m958 301 c-2 -10 -94 -98 -206 -195 -164 -142 -208 -176 -232 -176 -24 0 -69
34 -232 177 -112 97 -204 185 -206 195 -3 17 16 18 438 18 425 0 441 -1 438
-19z m-727 -271 l48 -45 -100 -78 -99 -77 0 166 0 166 52 -44 c29 -23 73 -63
99 -88z m727 -119 l-3 -77 -98 77 -98 78 98 85 98 85 3 -85 c1 -47 1 -120 0
-163z m-583 -2 c4 -6 25 -24 47 -40 34 -24 51 -29 97 -29 58 0 81 10 133 58
21 19 32 23 46 16 46 -23 261 -201 262 -216 0 -17 -27 -18 -440 -18 -413 0
-440 1 -439 18 0 18 253 222 275 222 7 0 16 -5 19 -11z" />
    </g>
</svg>